<?xml version="1.0" encoding="UTF-8" standalone="no"?>
<!-- Created with Inkscape (http://www.inkscape.org/) -->

<svg
   width="180mm"
   height="160mm"
   viewBox="0 0 180 160"
   version="1.1"
   id="svg1"
   xml:space="preserve"
   inkscape:version="1.4.2 (f4327f4, 2025-05-13)"
   sodipodi:docname="logohn.svg"
   xmlns:inkscape="http://www.inkscape.org/namespaces/inkscape"
   xmlns:sodipodi="http://sodipodi.sourceforge.net/DTD/sodipodi-0.dtd"
   xmlns="http://www.w3.org/2000/svg"
   xmlns:svg="http://www.w3.org/2000/svg"><sodipodi:namedview
     id="namedview1"
     pagecolor="#505050"
     bordercolor="#eeeeee"
     borderopacity="1"
     inkscape:showpageshadow="0"
     inkscape:pageopacity="0"
     inkscape:pagecheckerboard="0"
     inkscape:deskcolor="#505050"
     inkscape:document-units="mm"
     inkscape:zoom="0.97386896"
     inkscape:cx="404.57188"
     inkscape:cy="366.06568"
     inkscape:window-width="1920"
     inkscape:window-height="991"
     inkscape:window-x="-9"
     inkscape:window-y="-9"
     inkscape:window-maximized="1"
     inkscape:current-layer="layer1"
     showguides="true" /><defs
     id="defs1" /><g
     inkscape:label="Layer 1"
     inkscape:groupmode="layer"
     id="layer1"><path
       style="fill:#4a0b7d;fill-opacity:1;stroke-width:0.264583"
       d="m 2.5130646,79.603024 c 0,0 79.9426304,-77.9050086 79.8747094,-77.6333256 -0.06792,0.271683 0.271682,53.7252476 0.271682,53.7252476 H 67.241465 v -17.79521 l -29.34173,28.594598 v 75.731546 l 29.273809,0.13584 0.13584,-44.352186 45.506846,14.602936 -30.020932,-0.20376 -0.135842,45.23516 -60.313554,0.0679 0.06792,-77.972926 z"
       id="path1" /><path
       style="fill:#ffac1c;fill-opacity:1;stroke-width:0.264583"
       d="m 97.805763,119.9479 h 15.621747 l 0.0861,22.4503 31.74595,-0.14408 0.14408,-72.617076 -31.93806,-31.505818 0.24013,40.054658 -45.91396,-15.176588 29.872893,-0.48027 0.0961,-60.6102826 80.301417,77.5158406 -17.28978,-0.28816 0.43224,78.668496 -63.780067,-0.28816 z"
       id="path2" /><path
       style="fill:#000000;stroke-width:0.264583"
       d="m 216.80277,85.308361 3.2602,20.647889"
       id="path3" /></g></svg>
